8888888888                888      8888888888                       
888                       888      888                              
888                       888      888                              
8888888  .d88b.   .d88b.  888      8888888 888d888 .d88b.   .d88b.  
888     d8P  Y8b d8P  Y8b 888      888     888P"  d8P  Y8b d8P  Y8b 
888     88888888 88888888 888      888     888    88888888 88888888 
888     Y8b.     Y8b.     888      888     888    Y8b.     Y8b.     
888      "Y8888   "Y8888  888      888     888     "Y8888   "Y8888  


Genre:Action | Comedy | Sci-Fi 
Language:English
IMDb: 
http://www.imdb.com/title/tt1034314
Source:720p.BluRay.x264.DTS-HDChina Thanks!
Subtitles:English
Encoder:Tony

Format : MPEG-4
Format profile : Base Media
Codec ID : isom
File size : 2.25 GiB
Duration : 1h 32mn
Overall bit rate mode : Variable
Overall bit rate : 3 474 Kbps

Video
ID : 1
Format : AVC
Format/Info : Advanced Video Codec
Format profile : High@L4.1
Format settings, CABAC : Yes
Format settings, ReFrames : 8 frames
Codec ID : avc1
Codec ID/Info : Advanced Video Coding
Duration : 1h 32mn
Bit rate : 3 000 Kbps
Maximum bit rate : 19.2 Mbps
Width : 1 280 pixels
Height : 544 pixels
Display aspect ratio : 2.35:1
Frame rate mode : Constant
Frame rate : 24.000 fps
Color space : YUV
Chroma subsampling : 4:2:0
Bit depth : 8 bits
Scan type : Progressive
Bits/(Pixel*Frame) : 0.180
Stream size : 1.96 GiB (87%)
Writing library : x264


Audio
ID : 2
Format : AAC
Format/Info : Advanced Audio Codec
Format profile : LC
Codec ID : 40
Duration : 1h 32mn
Bit rate mode : Variable
Bit rate : 444 Kbps
Maximum bit rate : 550 Kbps
Channel(s) : 6 channels
Channel positions : Front: L C R, Side: L R, LFE
Sampling rate : 48.0 KHz
Compression mode : Lossy
Stream size : 294 MiB (13%)


Plot:
The Nazis set up a secret base on the moon in 1945 where they hide out and plan to return to power in 2018

Screen Shots:
             
http://img138.imageshack.us/img138/9283/vlcsnap2012053020h15m13.png
 
http://img88.imageshack.us/img88/7513/vlcsnap2012053020h15m24.png
 
http://img441.imageshack.us/img441/33/vlcsnap2012053020h15m49.png
 
http://img846.imageshack.us/img846/7536/vlcsnap2012053020h17m00.png
 
http://img832.imageshack.us/img832/8281/vlcsnap2012053020h19m28.png


8888888888                888      8888888888                       
888                       888      888                              
888                       888      888                              
8888888  .d88b.   .d88b.  888      8888888 888d888 .d88b.   .d88b.  
888     d8P  Y8b d8P  Y8b 888      888     888P"  d8P  Y8b d8P  Y8b 
888     88888888 88888888 888      888     888    88888888 88888888 
888     Y8b.     Y8b.     888      888     888    Y8b.     Y8b.     
888      "Y8888   "Y8888  888      888     888     "Y8888   "Y8888  